<svg width="14" height="16" viewBox="0 0 14 16" fill="none" xmlns="http://www.w3.org/2000/svg">
<path d="M5.35961 0.937408C5.47167 0.660442 5.66389 0.423251 5.91163 0.256238C6.15937 0.0892248 6.45134 0 6.75011 0C7.04889 0 7.34086 0.0892248 7.5886 0.256238C7.83633 0.423251 8.02855 0.660442 8.14061 0.937408C9.24968 1.24242 10.228 1.90308 10.9252 2.81791C11.6224 3.73274 12.0001 4.85117 12.0001 6.00141V9.52416L13.3741 11.5852C13.4495 11.6981 13.4928 11.8294 13.4993 11.965C13.5059 12.1006 13.4756 12.2355 13.4115 12.3552C13.3475 12.475 13.2521 12.575 13.1356 12.6448C13.0191 12.7146 12.8859 12.7514 12.7501 12.7514H9.34886C9.25856 13.3762 8.94616 13.9476 8.46889 14.3609C7.99162 14.7741 7.38143 15.0016 6.75011 15.0016C6.11879 15.0016 5.50861 14.7741 5.03134 14.3609C4.55407 13.9476 4.24166 13.3762 4.15136 12.7514H0.750112C0.61433 12.7514 0.48109 12.7146 0.364606 12.6448C0.248122 12.575 0.152764 12.475 0.0887068 12.3552C0.0246495 12.2355 -0.00570431 12.1006 0.000883387 11.965C0.00747109 11.8294 0.0507532 11.6981 0.126112 11.5852L1.50011 9.52416V6.00141C1.50011 3.58341 3.13511 1.54641 5.35961 0.937408ZM5.68961 12.7514C5.76707 12.9709 5.9107 13.161 6.10071 13.2954C6.29071 13.4298 6.51773 13.502 6.75049 13.502C6.98324 13.502 7.21027 13.4298 7.40027 13.2954C7.59027 13.161 7.7339 12.9709 7.81136 12.7514H5.68886H5.68961ZM6.75011 2.25141C5.75555 2.25141 4.80172 2.6465 4.09846 3.34976C3.3952 4.05302 3.00011 5.00685 3.00011 6.00141V9.75141C3.00015 9.89956 2.9563 10.0444 2.87411 10.1677L2.15186 11.2514H11.3476L10.6254 10.1677C10.5434 10.0443 10.4999 9.89948 10.5001 9.75141V6.00141C10.5001 5.00685 10.105 4.05302 9.40176 3.34976C8.6985 2.6465 7.74467 2.25141 6.75011 2.25141Z" fill="#7580A0"/>
</svg>
