<svg width="14" height="14" viewBox="0 0 14 14" fill="none" xmlns="http://www.w3.org/2000/svg">
<path d="M4.33325 9.66671V4.33337" stroke="#7580A0" stroke-width="1.5" stroke-linecap="round" stroke-linejoin="round"/>
<path d="M7 9.66671V6.33337" stroke="#7580A0" stroke-width="1.5" stroke-linecap="round" stroke-linejoin="round"/>
<path d="M9.66675 9.66663V7.66663" stroke="#7580A0" stroke-width="1.5" stroke-linecap="round" stroke-linejoin="round"/>
<path d="M1 12.6V1.4C1 1.29391 1.04214 1.19217 1.11716 1.11716C1.19217 1.04214 1.29391 1 1.4 1H12.6C12.7061 1 12.8078 1.04214 12.8828 1.11716C12.9579 1.19217 13 1.29391 13 1.4V12.6C13 12.7061 12.9579 12.8078 12.8828 12.8828C12.8078 12.9579 12.7061 13 12.6 13H1.4C1.29391 13 1.19217 12.9579 1.11716 12.8828C1.04214 12.8078 1 12.7061 1 12.6V12.6Z" stroke="#7580A0" stroke-width="1.5"/>
</svg>
