<svg width="32" height="30" viewBox="0 0 32 30" fill="none" xmlns="http://www.w3.org/2000/svg">
<rect width="32" height="30" rx="10" fill="#FFF8E6"/>
<path d="M15 13.375V17.75L18.7188 19.955L19.3925 18.835L16.3125 17.0063V13.375H15ZM23.75 15.125V9.00002L21.44 11.31C20.7113 10.5761 19.8442 9.99402 18.8889 9.5975C17.9337 9.20099 16.9093 8.99791 15.875 9.00002C14.3175 9.00002 12.7949 9.46188 11.4999 10.3272C10.2049 11.1925 9.19549 12.4224 8.59945 13.8614C8.00341 15.3004 7.84746 16.8838 8.15132 18.4114C8.45518 19.939 9.2052 21.3421 10.3065 22.4435C11.4079 23.5448 12.8111 24.2948 14.3387 24.5987C15.8663 24.9026 17.4497 24.7466 18.8886 24.1506C20.3276 23.5545 21.5575 22.5452 22.4228 21.2501C23.2881 19.9551 23.75 18.4325 23.75 16.875H22C22 20.2525 19.2525 23 15.875 23C12.4975 23 9.75 20.2525 9.75 16.875C9.75 13.4975 12.4975 10.75 15.875 10.75C17.5638 10.75 19.095 11.4413 20.2063 12.5438L17.625 15.125H23.75Z" fill="#F8C952"/>
</svg>
